#!OML:ASF G:\JayActor3\Patient Classification 1\Patient 1\Session 6\male.ASF
:FULLY-SPECIFIED
:DEGREES
776
root -24.0589 16.2592 12.1445 -543.306 -55.3198 183.505
lowerback -1.534 -0.672674 7.88177
upperback 2.72268 -1.24645 0.69084
thorax 3.54777 -0.440722 -3.75689
lowerneck -5.81323 -5.53048 -3.10788
upperneck 5.37081 -7.91051 8.90281
head 3.35159 -3.75002 3.12747
rclavicle -8.50301e-014 -1.23246e-014
rhumerus -31.5396 11.1059 -94.7531
rradius 47.3342
rwrist -1.59257
rhand -16.6206 -10.1504
rfingers 7.12502
rthumb 9.60138 -39.9116
lclavicle -8.50301e-014 -1.23246e-014
lhumerus -44.4127 33.4335 60.9112
lradius 13.4443
lwrist 1.54622
lhand -13.1621 14.6372
lfingers 7.12502
lthumb 12.9369 44.2161
rfemur 11.7227 5.69371 37.9309
rtibia 18.2739
rfoot -19.647 -4.17648
rtoes 3.44669
lfemur -31.9613 5.92695 -12.4185
ltibia 27.3034
lfoot -16.762 0.535559
ltoes -25.4465
777
root -24.2246 16.2506 12.0697 -543.428 -54.6268 183.717
lowerback -1.5676 -0.589177 8.02755
upperback 2.72656 -1.14598 0.713839
thorax 3.58253 -0.386326 -3.811
lowerneck -5.79524 -5.49346 -3.0731
upperneck 5.30921 -7.86118 8.91854
head 3.32243 -3.7267 3.12974
rclavicle 2.68359e-015 -2.10712e-014
rhumerus -31.5209 11.2337 -94.8243
rradius 47.4573
rwrist -1.59837
rhand -16.7459 -10.112
rfingers 7.12502
rthumb 9.48052 -39.8787
lclavicle 2.68359e-015 -2.10712e-014
lhumerus -45.0196 34.0745 59.9406
lradius 13.16
lwrist 0.857173
lhand -13.224 14.7027
lfingers 7.12502
lthumb 12.8773 44.2855
rfemur 12.8447 5.63886 37.8399
rtibia 17.4988
rfoot -19.1577 -3.51856
rtoes 3.22173
lfemur -32.2007 6.29656 -12.465
ltibia 26.1322
lfoot -17.0183 -1.35316
ltoes -24.8041
778
root -24.3897 16.2409 11.9946 -543.575 -53.9309 183.927
lowerback -1.56574 -0.508993 8.18241
upperback 2.73672 -1.04721 0.729141
thorax 3.60379 -0.332842 -3.8776
lowerneck -5.78981 -5.45252 -3.02999
upperneck 5.26672 -7.80942 8.93755
head 3.30192 -3.70137 3.13145
rclavicle 3.35449e-015 -1.31198e-014
rhumerus -31.4916 11.3369 -94.8971
rradius 47.5018
rwrist -1.57649
rhand -16.8486 -10.0541
rfingers 7.12502
rthumb 9.38139 -39.8253
lclavicle 3.35449e-015 -1.31198e-014
lhumerus -45.5835 34.6131 59.0475
lradius 12.9379
lwrist 0.302261
lhand -13.2801 14.7706
lfingers 7.12502
lthumb 12.8232 44.3567
rfemur 13.925 5.55271 37.7252
rtibia 16.843
rfoot -18.6409 -2.82147
rtoes 3.01118
lfemur -32.3669 6.59563 -12.4512
ltibia 25.1822
lfoot -17.2107 -3.11671
ltoes -24.4851
779
root -24.554 16.2294 11.919 -543.758 -53.2381 184.164
lowerback -1.53823 -0.454203 8.34013
upperback 2.74106 -0.980777 0.764647
thorax 3.60105 -0.297066 -3.92563
lowerneck -5.7531 -5.39482 -3.01923
upperneck 5.21881 -7.73085 8.94915
head 3.273 -3.6643 3.13885
rclavicle 4.75344e-014 -1.11319e-014
rhumerus -31.4712 11.4913 -94.9652
rradius 47.4679
rwrist -1.53322
rhand -16.9259 -9.99017
rfingers 7.12502
rthumb 9.30689 -39.7647
lclavicle 4.75344e-014 -1.11319e-014
lhumerus -46.1743 35.1166 58.1995
lradius 12.781
lwrist -0.142928
lhand -13.3294 14.8497
lfingers 7.12502
lthumb 12.7757 44.4388
rfemur 14.9408 5.46262 37.6223
rtibia 16.3272
rfoot -18.108 -2.13491
rtoes 2.79096
lfemur -32.4704 6.91533 -12.393
ltibia 24.4573
lfoot -17.3788 -4.76869
ltoes -24.5124
780
root -24.7181 16.2158 11.8428 -543.961 -52.5558 184.413
lowerback -1.50292 -0.414015 8.50176
upperback 2.74128 -0.933355 0.808178
thorax 3.58746 -0.271452 -3.96814
lowerneck -5.68861 -5.32297 -3.03665
upperneck 5.1745 -7.63202 8.96906
head 3.24064 -3.61812 3.15613
rclavicle -2.18166e-014 -1.78906e-014
rhumerus -31.4596 11.647 -95.0257
rradius 47.3615
rwrist -1.46392
rhand -16.9813 -9.90368
rfingers 7.12502
rthumb 9.25341 -39.6806
lclavicle -2.18166e-014 -1.78906e-014
lhumerus -46.7501 35.5444 57.4279
lradius 12.6781
lwrist -0.471912
lhand -13.3927 14.9297
lfingers 7.12502
lthumb 12.7146 44.5226
rfemur 15.8823 5.39212 37.5402
rtibia 15.9628
rfoot -17.5658 -1.53485
rtoes 2.43887
lfemur -32.4962 7.2138 -12.2882
ltibia 23.9581
lfoot -17.6012 -6.19073
ltoes -25.0223
781
root -24.8824 16.1999 11.7656 -544.182 -51.89 184.686
lowerback -1.47931 -0.389229 8.66881
upperback 2.73273 -0.908022 0.866889
thorax 3.56878 -0.25753 -3.99884
lowerneck -5.592 -5.24088 -3.08172
upperneck 5.13981 -7.5177 8.98614
head 3.20565 -3.56537 3.17909
rclavicle -2.01518e-014 8.34896e-015
rhumerus -31.477 11.8124 -95.0696
rradius 47.2034
rwrist -1.37612
rhand -17.0044 -9.80076
rfingers 7.12502
rthumb 9.23108 -39.5787
lclavicle -2.01518e-014 8.34896e-015
lhumerus -47.3254 35.9251 56.7116
lradius 12.6076
lwrist -0.730073
lhand -13.4858 14.9921
lfingers 7.12502
lthumb 12.6248 44.5906
rfemur 16.725 5.32563 37.4815
rtibia 15.7718
rfoot -17.0255 -1.01428
rtoes 1.91265
lfemur -32.4383 7.39336 -12.0899
ltibia 23.6785
lfoot -17.8018 -7.36849
ltoes -25.549
